<mxfile host="app.diagrams.net" agent="Mozilla/5.0 (Windows NT 10.0; Win64; x64) AppleWebKit/537.36 (KHTML, like Gecko) Chrome/133.0.0.0 Safari/537.36 OPR/118.0.0.0" version="27.0.1">
  <diagram name="Page-1" id="Kwv_VZdKufA3s2lp-62g">
    <mxGraphModel dx="1831" dy="1042" grid="1" gridSize="10" guides="1" tooltips="1" connect="1" arrows="1" fold="1" page="1" pageScale="1" pageWidth="827" pageHeight="1169" math="0" shadow="0">
      <root>
        <mxCell id="0" />
        <mxCell id="1" parent="0" />
        <mxCell id="6eLsHRlYttYjRIFvQhJY-1" value="" style="ellipse;whiteSpace=wrap;html=1;aspect=fixed;fillColor=#000000;" vertex="1" parent="1">
          <mxGeometry x="80" y="60" width="20" height="20" as="geometry" />
        </mxCell>
        <mxCell id="6eLsHRlYttYjRIFvQhJY-2" value="" style="endArrow=classic;html=1;rounded=0;exitX=1;exitY=0.5;exitDx=0;exitDy=0;entryX=0;entryY=0.5;entryDx=0;entryDy=0;" edge="1" parent="1" source="6eLsHRlYttYjRIFvQhJY-1" target="6eLsHRlYttYjRIFvQhJY-3">
          <mxGeometry width="50" height="50" relative="1" as="geometry">
            <mxPoint x="390" y="160" as="sourcePoint" />
            <mxPoint x="120" y="50" as="targetPoint" />
          </mxGeometry>
        </mxCell>
        <mxCell id="6eLsHRlYttYjRIFvQhJY-3" value="" style="rhombus;whiteSpace=wrap;html=1;" vertex="1" parent="1">
          <mxGeometry x="120" y="60" width="20" height="20" as="geometry" />
        </mxCell>
        <mxCell id="6eLsHRlYttYjRIFvQhJY-8" value="SettingsScreen" style="rounded=1;whiteSpace=wrap;html=1;" vertex="1" parent="1">
          <mxGeometry x="260" y="20" width="90" height="20" as="geometry" />
        </mxCell>
        <mxCell id="6eLsHRlYttYjRIFvQhJY-9" value="" style="endArrow=none;html=1;rounded=0;exitX=1;exitY=0.5;exitDx=0;exitDy=0;" edge="1" parent="1" source="6eLsHRlYttYjRIFvQhJY-3">
          <mxGeometry width="50" height="50" relative="1" as="geometry">
            <mxPoint x="300" y="140" as="sourcePoint" />
            <mxPoint x="160" y="70" as="targetPoint" />
          </mxGeometry>
        </mxCell>
        <mxCell id="6eLsHRlYttYjRIFvQhJY-11" value="" style="endArrow=classic;html=1;rounded=0;entryX=0;entryY=0.5;entryDx=0;entryDy=0;" edge="1" parent="1" target="6eLsHRlYttYjRIFvQhJY-8">
          <mxGeometry width="50" height="50" relative="1" as="geometry">
            <mxPoint x="160" y="70" as="sourcePoint" />
            <mxPoint x="350" y="90" as="targetPoint" />
            <Array as="points">
              <mxPoint x="160" y="30" />
            </Array>
          </mxGeometry>
        </mxCell>
        <mxCell id="6eLsHRlYttYjRIFvQhJY-12" value="DeckManager" style="rounded=1;whiteSpace=wrap;html=1;" vertex="1" parent="1">
          <mxGeometry x="260" y="60" width="90" height="20" as="geometry" />
        </mxCell>
        <mxCell id="6eLsHRlYttYjRIFvQhJY-14" value="" style="endArrow=classic;html=1;rounded=0;entryX=0;entryY=0.5;entryDx=0;entryDy=0;" edge="1" parent="1" target="6eLsHRlYttYjRIFvQhJY-12">
          <mxGeometry width="50" height="50" relative="1" as="geometry">
            <mxPoint x="160" y="70" as="sourcePoint" />
            <mxPoint x="350" y="90" as="targetPoint" />
          </mxGeometry>
        </mxCell>
        <mxCell id="6eLsHRlYttYjRIFvQhJY-15" value="" style="endArrow=classic;html=1;rounded=0;entryX=0;entryY=0.5;entryDx=0;entryDy=0;" edge="1" parent="1">
          <mxGeometry width="50" height="50" relative="1" as="geometry">
            <mxPoint x="160" y="70" as="sourcePoint" />
            <mxPoint x="220" y="100" as="targetPoint" />
            <Array as="points">
              <mxPoint x="160" y="100" />
            </Array>
          </mxGeometry>
        </mxCell>
        <mxCell id="6eLsHRlYttYjRIFvQhJY-18" value="&lt;font style=&quot;font-size: 6px;&quot;&gt;[keine Lust mehr]&lt;/font&gt;" style="text;html=1;align=center;verticalAlign=middle;whiteSpace=wrap;rounded=0;" vertex="1" parent="1">
          <mxGeometry x="155" y="75" width="60" height="30" as="geometry" />
        </mxCell>
        <mxCell id="6eLsHRlYttYjRIFvQhJY-20" value="" style="endArrow=classic;html=1;rounded=0;entryX=0.5;entryY=0;entryDx=0;entryDy=0;exitX=0.5;exitY=1;exitDx=0;exitDy=0;" edge="1" parent="1" source="6eLsHRlYttYjRIFvQhJY-72" target="6eLsHRlYttYjRIFvQhJY-12">
          <mxGeometry width="50" height="50" relative="1" as="geometry">
            <mxPoint x="170" y="80" as="sourcePoint" />
            <mxPoint x="230" y="40" as="targetPoint" />
            <Array as="points">
              <mxPoint x="380" y="50" />
              <mxPoint x="305" y="50" />
            </Array>
          </mxGeometry>
        </mxCell>
        <mxCell id="6eLsHRlYttYjRIFvQhJY-21" value="" style="endArrow=classic;html=1;rounded=0;exitX=0.5;exitY=0;exitDx=0;exitDy=0;entryX=0.5;entryY=0;entryDx=0;entryDy=0;" edge="1" parent="1" source="6eLsHRlYttYjRIFvQhJY-72" target="6eLsHRlYttYjRIFvQhJY-3">
          <mxGeometry width="50" height="50" relative="1" as="geometry">
            <mxPoint x="350" y="60" as="sourcePoint" />
            <mxPoint x="200" y="10" as="targetPoint" />
            <Array as="points">
              <mxPoint x="380" y="10" />
              <mxPoint x="360" y="10" />
              <mxPoint x="130" y="10" />
            </Array>
          </mxGeometry>
        </mxCell>
        <mxCell id="6eLsHRlYttYjRIFvQhJY-22" value="" style="endArrow=classic;html=1;rounded=0;entryX=0.5;entryY=0;entryDx=0;entryDy=0;exitX=0.5;exitY=1;exitDx=0;exitDy=0;" edge="1" parent="1" source="6eLsHRlYttYjRIFvQhJY-12" target="6eLsHRlYttYjRIFvQhJY-33">
          <mxGeometry width="50" height="50" relative="1" as="geometry">
            <mxPoint x="265" y="81" as="sourcePoint" />
            <mxPoint x="265" y="130" as="targetPoint" />
            <Array as="points" />
          </mxGeometry>
        </mxCell>
        <mxCell id="6eLsHRlYttYjRIFvQhJY-33" value="" style="rhombus;whiteSpace=wrap;html=1;" vertex="1" parent="1">
          <mxGeometry x="295" y="130" width="20" height="20" as="geometry" />
        </mxCell>
        <mxCell id="6eLsHRlYttYjRIFvQhJY-36" value="Decks bearbeiten" style="rounded=1;whiteSpace=wrap;html=1;" vertex="1" parent="1">
          <mxGeometry x="195" y="200" width="100" height="20" as="geometry" />
        </mxCell>
        <mxCell id="6eLsHRlYttYjRIFvQhJY-37" value="" style="endArrow=classic;html=1;rounded=0;exitX=0.5;exitY=1;exitDx=0;exitDy=0;entryX=0.5;entryY=0;entryDx=0;entryDy=0;" edge="1" parent="1" source="6eLsHRlYttYjRIFvQhJY-33" target="6eLsHRlYttYjRIFvQhJY-36">
          <mxGeometry width="50" height="50" relative="1" as="geometry">
            <mxPoint x="240" y="190" as="sourcePoint" />
            <mxPoint x="265" y="180" as="targetPoint" />
          </mxGeometry>
        </mxCell>
        <mxCell id="6eLsHRlYttYjRIFvQhJY-38" value="" style="endArrow=classic;html=1;rounded=0;exitX=0.5;exitY=1;exitDx=0;exitDy=0;entryX=0.5;entryY=0;entryDx=0;entryDy=0;" edge="1" parent="1" source="6eLsHRlYttYjRIFvQhJY-33" target="6eLsHRlYttYjRIFvQhJY-40">
          <mxGeometry width="50" height="50" relative="1" as="geometry">
            <mxPoint x="260" y="200" as="sourcePoint" />
            <mxPoint x="350" y="180" as="targetPoint" />
          </mxGeometry>
        </mxCell>
        <mxCell id="6eLsHRlYttYjRIFvQhJY-40" value="Karten bearbeiten" style="rounded=1;whiteSpace=wrap;html=1;" vertex="1" parent="1">
          <mxGeometry x="315" y="200" width="105" height="20" as="geometry" />
        </mxCell>
        <mxCell id="6eLsHRlYttYjRIFvQhJY-42" value="" style="ellipse;whiteSpace=wrap;html=1;aspect=fixed;" vertex="1" parent="1">
          <mxGeometry x="220" y="90" width="20" height="20" as="geometry" />
        </mxCell>
        <mxCell id="6eLsHRlYttYjRIFvQhJY-43" value="" style="ellipse;whiteSpace=wrap;html=1;aspect=fixed;strokeColor=default;fillColor=#000000;" vertex="1" parent="1">
          <mxGeometry x="225" y="95" width="10" height="10" as="geometry" />
        </mxCell>
        <mxCell id="6eLsHRlYttYjRIFvQhJY-47" value="&lt;font style=&quot;font-size: 6px; line-height: 80%;&quot;&gt;[Auswahl Settings]&lt;/font&gt;" style="text;html=1;align=center;verticalAlign=middle;whiteSpace=wrap;rounded=0;" vertex="1" parent="1">
          <mxGeometry x="155" y="10" width="60" height="20" as="geometry" />
        </mxCell>
        <mxCell id="6eLsHRlYttYjRIFvQhJY-49" value="&lt;font style=&quot;font-size: 6px; line-height: 80%;&quot;&gt;[Auswahl Deck Manager]&lt;/font&gt;" style="text;html=1;align=center;verticalAlign=middle;whiteSpace=wrap;rounded=0;" vertex="1" parent="1">
          <mxGeometry x="170" y="50" width="70" height="20" as="geometry" />
        </mxCell>
        <mxCell id="6eLsHRlYttYjRIFvQhJY-50" value="&lt;span style=&quot;font-size: 6px;&quot;&gt;[Deck Importieren]&lt;/span&gt;" style="text;html=1;align=center;verticalAlign=middle;whiteSpace=wrap;rounded=0;" vertex="1" parent="1">
          <mxGeometry x="318.75" y="30" width="60" height="30" as="geometry" />
        </mxCell>
        <mxCell id="6eLsHRlYttYjRIFvQhJY-51" value="&lt;font style=&quot;font-size: 6px;&quot;&gt;fertig&lt;/font&gt;" style="text;html=1;align=center;verticalAlign=middle;whiteSpace=wrap;rounded=0;" vertex="1" parent="1">
          <mxGeometry x="347.5" y="5" width="40" height="15" as="geometry" />
        </mxCell>
        <mxCell id="6eLsHRlYttYjRIFvQhJY-52" value="&lt;span style=&quot;font-size: 6px;&quot;&gt;[Auswahl Decks Bearbeiten]&lt;/span&gt;" style="text;html=1;align=center;verticalAlign=middle;whiteSpace=wrap;rounded=0;" vertex="1" parent="1">
          <mxGeometry x="307.5" y="80" width="82.5" height="30" as="geometry" />
        </mxCell>
        <mxCell id="6eLsHRlYttYjRIFvQhJY-54" value="&lt;span style=&quot;font-size: 6px;&quot;&gt;[fertig]&lt;/span&gt;" style="text;html=1;align=center;verticalAlign=middle;whiteSpace=wrap;rounded=0;" vertex="1" parent="1">
          <mxGeometry x="203.75" y="120" width="36.25" height="10" as="geometry" />
        </mxCell>
        <mxCell id="6eLsHRlYttYjRIFvQhJY-55" value="" style="endArrow=classic;html=1;rounded=0;exitX=0.5;exitY=1;exitDx=0;exitDy=0;entryX=1;entryY=0.5;entryDx=0;entryDy=0;" edge="1" parent="1" source="6eLsHRlYttYjRIFvQhJY-59" target="6eLsHRlYttYjRIFvQhJY-33">
          <mxGeometry width="50" height="50" relative="1" as="geometry">
            <mxPoint x="305" y="230" as="sourcePoint" />
            <mxPoint x="420" y="270" as="targetPoint" />
            <Array as="points">
              <mxPoint x="305" y="280" />
              <mxPoint x="440" y="280" />
              <mxPoint x="440" y="140" />
            </Array>
          </mxGeometry>
        </mxCell>
        <mxCell id="6eLsHRlYttYjRIFvQhJY-59" value="" style="rhombus;whiteSpace=wrap;html=1;" vertex="1" parent="1">
          <mxGeometry x="295" y="230" width="20" height="20" as="geometry" />
        </mxCell>
        <mxCell id="6eLsHRlYttYjRIFvQhJY-60" value="" style="endArrow=classic;html=1;rounded=0;entryX=0;entryY=0.5;entryDx=0;entryDy=0;exitX=0.5;exitY=1;exitDx=0;exitDy=0;" edge="1" parent="1" source="6eLsHRlYttYjRIFvQhJY-36" target="6eLsHRlYttYjRIFvQhJY-59">
          <mxGeometry width="50" height="50" relative="1" as="geometry">
            <mxPoint x="170" y="190" as="sourcePoint" />
            <mxPoint x="220" y="140" as="targetPoint" />
            <Array as="points">
              <mxPoint x="245" y="240" />
            </Array>
          </mxGeometry>
        </mxCell>
        <mxCell id="6eLsHRlYttYjRIFvQhJY-61" value="" style="endArrow=classic;html=1;rounded=0;entryX=1;entryY=0.5;entryDx=0;entryDy=0;exitX=0.5;exitY=1;exitDx=0;exitDy=0;" edge="1" parent="1" source="6eLsHRlYttYjRIFvQhJY-40" target="6eLsHRlYttYjRIFvQhJY-59">
          <mxGeometry width="50" height="50" relative="1" as="geometry">
            <mxPoint x="255" y="230" as="sourcePoint" />
            <mxPoint x="305" y="250" as="targetPoint" />
            <Array as="points">
              <mxPoint x="368" y="240" />
            </Array>
          </mxGeometry>
        </mxCell>
        <mxCell id="6eLsHRlYttYjRIFvQhJY-63" value="&lt;span style=&quot;font-size: 6px;&quot;&gt;[Auswahl Decks Bearbeiten]&lt;/span&gt;" style="text;html=1;align=center;verticalAlign=middle;whiteSpace=wrap;rounded=0;rotation=-40;" vertex="1" parent="1">
          <mxGeometry x="225" y="150" width="82.5" height="30" as="geometry" />
        </mxCell>
        <mxCell id="6eLsHRlYttYjRIFvQhJY-64" value="&lt;span style=&quot;font-size: 6px;&quot;&gt;[Auswahl Karten Bearbeiten]&lt;/span&gt;" style="text;html=1;align=center;verticalAlign=middle;whiteSpace=wrap;rounded=0;rotation=40;" vertex="1" parent="1">
          <mxGeometry x="315" y="155" width="82.5" height="30" as="geometry" />
        </mxCell>
        <mxCell id="6eLsHRlYttYjRIFvQhJY-66" value="" style="endArrow=classic;html=1;rounded=0;exitX=1;exitY=0.5;exitDx=0;exitDy=0;entryX=0;entryY=0.5;entryDx=0;entryDy=0;" edge="1" parent="1" source="6eLsHRlYttYjRIFvQhJY-12" target="6eLsHRlYttYjRIFvQhJY-68">
          <mxGeometry width="50" height="50" relative="1" as="geometry">
            <mxPoint x="350" y="130" as="sourcePoint" />
            <mxPoint x="460" y="70" as="targetPoint" />
          </mxGeometry>
        </mxCell>
        <mxCell id="6eLsHRlYttYjRIFvQhJY-68" value="CardScreen" style="rounded=1;whiteSpace=wrap;html=1;" vertex="1" parent="1">
          <mxGeometry x="420" y="60" width="90" height="20" as="geometry" />
        </mxCell>
        <mxCell id="6eLsHRlYttYjRIFvQhJY-69" value="" style="endArrow=classic;html=1;rounded=0;exitX=1;exitY=0.5;exitDx=0;exitDy=0;" edge="1" parent="1" source="6eLsHRlYttYjRIFvQhJY-68">
          <mxGeometry width="50" height="50" relative="1" as="geometry">
            <mxPoint x="350" y="130" as="sourcePoint" />
            <mxPoint x="530" y="70" as="targetPoint" />
          </mxGeometry>
        </mxCell>
        <mxCell id="6eLsHRlYttYjRIFvQhJY-71" value="" style="rhombus;whiteSpace=wrap;html=1;" vertex="1" parent="1">
          <mxGeometry x="530" y="60" width="20" height="20" as="geometry" />
        </mxCell>
        <mxCell id="6eLsHRlYttYjRIFvQhJY-72" value="" style="rhombus;whiteSpace=wrap;html=1;" vertex="1" parent="1">
          <mxGeometry x="370" y="20" width="20" height="20" as="geometry" />
        </mxCell>
        <mxCell id="6eLsHRlYttYjRIFvQhJY-73" value="" style="endArrow=classic;html=1;rounded=0;exitX=1;exitY=0.5;exitDx=0;exitDy=0;" edge="1" parent="1" source="6eLsHRlYttYjRIFvQhJY-8">
          <mxGeometry width="50" height="50" relative="1" as="geometry">
            <mxPoint x="410" y="20" as="sourcePoint" />
            <mxPoint x="370" y="30" as="targetPoint" />
          </mxGeometry>
        </mxCell>
        <mxCell id="6eLsHRlYttYjRIFvQhJY-81" value="" style="endArrow=classic;html=1;rounded=0;entryX=0;entryY=0.5;entryDx=0;entryDy=0;exitX=1;exitY=0.5;exitDx=0;exitDy=0;" edge="1" parent="1" source="6eLsHRlYttYjRIFvQhJY-71">
          <mxGeometry width="50" height="50" relative="1" as="geometry">
            <mxPoint x="490" y="100" as="sourcePoint" />
            <mxPoint x="620" y="70" as="targetPoint" />
          </mxGeometry>
        </mxCell>
        <mxCell id="6eLsHRlYttYjRIFvQhJY-90" value="" style="rhombus;whiteSpace=wrap;html=1;" vertex="1" parent="1">
          <mxGeometry x="530" y="110" width="20" height="20" as="geometry" />
        </mxCell>
        <mxCell id="6eLsHRlYttYjRIFvQhJY-91" value="" style="endArrow=classic;html=1;rounded=0;entryX=0.5;entryY=1;entryDx=0;entryDy=0;exitX=1;exitY=1;exitDx=0;exitDy=0;" edge="1" parent="1" source="6eLsHRlYttYjRIFvQhJY-99" target="6eLsHRlYttYjRIFvQhJY-71">
          <mxGeometry width="50" height="50" relative="1" as="geometry">
            <mxPoint x="540" y="190" as="sourcePoint" />
            <mxPoint x="490" y="130" as="targetPoint" />
          </mxGeometry>
        </mxCell>
        <mxCell id="6eLsHRlYttYjRIFvQhJY-94" value="" style="rhombus;whiteSpace=wrap;html=1;" vertex="1" parent="1">
          <mxGeometry x="120" y="130" width="20" height="20" as="geometry" />
        </mxCell>
        <mxCell id="6eLsHRlYttYjRIFvQhJY-95" value="" style="endArrow=classic;html=1;rounded=0;entryX=1;entryY=0.5;entryDx=0;entryDy=0;exitX=0;exitY=0.5;exitDx=0;exitDy=0;" edge="1" parent="1" source="6eLsHRlYttYjRIFvQhJY-33" target="6eLsHRlYttYjRIFvQhJY-94">
          <mxGeometry width="50" height="50" relative="1" as="geometry">
            <mxPoint x="280" y="190" as="sourcePoint" />
            <mxPoint x="330" y="140" as="targetPoint" />
          </mxGeometry>
        </mxCell>
        <mxCell id="6eLsHRlYttYjRIFvQhJY-96" value="" style="endArrow=classic;html=1;rounded=0;entryX=0.5;entryY=1;entryDx=0;entryDy=0;exitX=0.5;exitY=0;exitDx=0;exitDy=0;" edge="1" parent="1" source="6eLsHRlYttYjRIFvQhJY-94" target="6eLsHRlYttYjRIFvQhJY-3">
          <mxGeometry width="50" height="50" relative="1" as="geometry">
            <mxPoint x="305" y="150" as="sourcePoint" />
            <mxPoint x="150" y="150" as="targetPoint" />
          </mxGeometry>
        </mxCell>
        <mxCell id="6eLsHRlYttYjRIFvQhJY-97" value="" style="endArrow=classic;html=1;rounded=0;entryX=0.5;entryY=1;entryDx=0;entryDy=0;exitX=0.5;exitY=1;exitDx=0;exitDy=0;" edge="1" parent="1" source="6eLsHRlYttYjRIFvQhJY-90" target="6eLsHRlYttYjRIFvQhJY-94">
          <mxGeometry width="50" height="50" relative="1" as="geometry">
            <mxPoint x="550" y="200" as="sourcePoint" />
            <mxPoint x="550" y="90" as="targetPoint" />
            <Array as="points">
              <mxPoint x="540" y="300" />
              <mxPoint x="130" y="300" />
            </Array>
          </mxGeometry>
        </mxCell>
        <mxCell id="6eLsHRlYttYjRIFvQhJY-98" value="&lt;font style=&quot;font-size: 6px;&quot;&gt;[Deck Starten]&lt;/font&gt;" style="text;html=1;align=center;verticalAlign=middle;whiteSpace=wrap;rounded=0;" vertex="1" parent="1">
          <mxGeometry x="350" y="45" width="60" height="30" as="geometry" />
        </mxCell>
        <mxCell id="6eLsHRlYttYjRIFvQhJY-99" value="&lt;font style=&quot;font-size: 6px;&quot;&gt;[neues Wort]&lt;/font&gt;" style="text;html=1;align=center;verticalAlign=middle;whiteSpace=wrap;rounded=0;" vertex="1" parent="1">
          <mxGeometry x="480" y="80" width="60" height="30" as="geometry" />
        </mxCell>
        <mxCell id="6eLsHRlYttYjRIFvQhJY-100" value="&lt;font style=&quot;font-size: 6px;&quot;&gt;[Aufhören]&lt;/font&gt;" style="text;html=1;align=center;verticalAlign=middle;whiteSpace=wrap;rounded=0;" vertex="1" parent="1">
          <mxGeometry x="490" y="225" width="60" height="30" as="geometry" />
        </mxCell>
        <mxCell id="6eLsHRlYttYjRIFvQhJY-101" value="lernen" style="rounded=1;whiteSpace=wrap;html=1;" vertex="1" parent="1">
          <mxGeometry x="620" y="60" width="90" height="20" as="geometry" />
        </mxCell>
        <mxCell id="6eLsHRlYttYjRIFvQhJY-102" value="" style="endArrow=classic;html=1;rounded=0;entryX=1;entryY=0.5;entryDx=0;entryDy=0;exitX=0.54;exitY=1.074;exitDx=0;exitDy=0;exitPerimeter=0;" edge="1" parent="1" source="6eLsHRlYttYjRIFvQhJY-101" target="6eLsHRlYttYjRIFvQhJY-90">
          <mxGeometry width="50" height="50" relative="1" as="geometry">
            <mxPoint x="460" y="150" as="sourcePoint" />
            <mxPoint x="510" y="100" as="targetPoint" />
            <Array as="points">
              <mxPoint x="670" y="120" />
            </Array>
          </mxGeometry>
        </mxCell>
      </root>
    </mxGraphModel>
  </diagram>
</mxfile>
